<?xml version="1.0" encoding="UTF-8"?>
<!DOCTYPE svg PUBLIC "-//W3C//DTD SVG 1.1//EN" "http://www.w3.org/Graphics/SVG/1.1/DTD/svg11.dtd">
<!-- Creator: CorelDRAW X7 -->
<svg xmlns="http://www.w3.org/2000/svg" xml:space="preserve" width="0.317976in" height="0.561134in" version="1.1" style="shape-rendering:geometricPrecision; text-rendering:geometricPrecision; image-rendering:optimizeQuality; fill-rule:evenodd; clip-rule:evenodd"
viewBox="0 0 329 580"
 xmlns:xlink="http://www.w3.org/1999/xlink">
 <defs>
  <style type="text/css">
   <![CDATA[
    .fil0 {fill:#086642}
   ]]>
  </style>
 </defs>
 <g id="Layer_x0020_1">
  <metadata id="CorelCorpID_0Corel-Layer"/>
  <g id="_476909832">
   <path class="fil0" d="M142 372c0,-44 51,-33 51,-8 0,45 -51,34 -51,8zm-142 24c0,19 12,23 17,22 23,-12 14,-21 18,-50 3,-20 1,-48 14,-57 0,33 -5,54 -5,95l0 154c0,27 42,26 42,-2l0 -130 14 0 0 130c0,22 20,22 42,22 -3,-5 -5,-5 -5,-10 0,-24 -1,-125 5,-137 -12,3 -8,7 -10,31 -1,12 0,33 -12,33 -11,0 -11,-11 -9,-21 11,-70 -1,-65 82,-65 17,0 25,14 27,29 3,17 5,35 5,54 -23,6 -17,0 -21,-28 -2,-15 1,-26 -8,-33 0,35 7,116 0,147 49,0 39,9 39,-120l15 0 0 95c0,36 31,26 31,13l0 -108 20 0c0,-62 -27,-85 -27,-125 0,-8 2,-9 2,-17 8,5 3,-3 9,23 5,21 16,75 28,75 30,0 10,-40 -1,-82 -15,-61 -32,-62 -82,-62 -27,0 -46,22 -51,44 -1,-1 -1,-2 -1,-2 -2,5 -1,-3 -2,-4l-6 -17c-5,-8 -10,-14 -16,-19 -37,-29 -121,-25 -141,25 -8,22 -13,68 -13,97z"/>
   <path class="fil0" d="M32 137c18,-2 34,-11 64,0 29,10 10,15 44,3 10,-3 19,-2 26,-5l1 124 12 19c4,5 1,4 7,6l0 -149c7,3 15,2 24,5 6,2 17,7 24,6 14,-3 17,-14 57,-14 14,0 18,4 29,5 -10,-122 -203,-159 -272,-49 -7,11 -16,31 -16,49z"/>
   <path class="fil0" d="M49 203c0,34 46,58 75,29 27,-27 7,-75 -31,-75 -24,0 -44,21 -44,46z"/>
   <path class="fil0" d="M203 220c0,53 80,52 80,0 0,-51 -80,-52 -80,0z"/>
   <path class="fil0" d="M166 15l20 0c0,-10 -1,-9 -5,-15l-5 0 -5 0c-4,6 -4,5 -5,15z"/>
  </g>
 </g>
</svg>
