<?xml version="1.0" encoding="UTF-8"?>
<!DOCTYPE svg PUBLIC "-//W3C//DTD SVG 1.1//EN" "http://www.w3.org/Graphics/SVG/1.1/DTD/svg11.dtd">
<!-- Creator: CorelDRAW X7 -->
<svg xmlns="http://www.w3.org/2000/svg" xml:space="preserve" width="0.498512in" height="0.360567in" version="1.1" style="shape-rendering:geometricPrecision; text-rendering:geometricPrecision; image-rendering:optimizeQuality; fill-rule:evenodd; clip-rule:evenodd"
viewBox="0 0 497 360"
 xmlns:xlink="http://www.w3.org/1999/xlink">
 <defs>
  <style type="text/css">
   <![CDATA[
    .fil4 {fill:#0775BA}
    .fil9 {fill:#0973B6}
    .fil10 {fill:#0974B9}
    .fil3 {fill:#0E75BC}
    .fil5 {fill:#105D98}
    .fil8 {fill:#155C8B}
    .fil6 {fill:#178FBD}
    .fil7 {fill:#1890BF}
    .fil1 {fill:#23A9DF}
    .fil2 {fill:#603813}
    .fil0 {fill:#F6941E}
   ]]>
  </style>
 </defs>
 <g id="Layer_x0020_1">
  <metadata id="CorelCorpID_0Corel-Layer"/>
  <g id="_586412968">
   <path class="fil0" d="M296 301c-6,0 -9,0 -13,-3 -3,-2 -5,-6 -5,-11 0,-9 8,-15 18,-13 4,-2 15,4 15,13 -1,8 -6,14 -15,14zm-62 0c-5,0 -8,0 -13,-3 -6,-4 -6,-17 0,-22 4,-2 7,-3 13,-2 8,-1 15,6 15,13 0,3 -2,8 -4,10 -2,2 -6,4 -11,4zm-55 -156c19,0 20,16 24,20l4 2c20,1 40,1 60,1 20,0 41,0 60,0 3,0 4,0 6,1 5,2 1,12 0,15 -2,8 -4,14 -5,21 -2,7 -4,14 -5,21 -2,9 -3,13 -13,13l-88 0c3,12 4,12 11,16l1 0 1 0 1 1c12,0 23,0 35,0 6,0 12,-1 18,0 6,0 12,-1 17,0 5,0 4,0 7,2 2,1 5,2 6,3 -5,2 -5,5 -13,5 -22,1 -44,1 -66,1 -27,0 -29,-8 -36,-30 -4,-18 -9,-35 -13,-52 -5,-18 -5,-29 -21,-29 -3,0 -4,-1 -6,-2 -1,-1 -4,-3 -5,-4 3,-1 5,-4 8,-5 4,-1 8,0 12,0zm-130 -16c-5,0 -7,0 -13,-1 -5,0 -7,-2 -7,0l0 166c0,13 12,25 24,25l384 0c13,0 26,-11 30,-25 3,-9 2,-41 2,-53 0,-37 0,-73 0,-110 -21,-5 -35,1 -55,-19l-13 -12c-2,5 -13,17 -19,21 -24,16 -55,10 -73,-11 -2,-3 -7,-10 -8,-13 -1,1 -3,4 -4,6 -1,2 -3,4 -5,6 -1,1 -1,2 -2,3 -10,11 -22,18 -40,18 -14,0 -27,-5 -35,-13 -2,-2 -3,-2 -5,-5 -3,-4 -6,-6 -9,-12 -1,-1 -1,-2 -3,-3 -1,7 -13,18 -19,23 -17,13 -44,13 -63,0 -5,-5 -17,-17 -19,-23 -2,1 -1,2 -4,6 -4,6 -8,11 -14,16 -7,5 -18,10 -30,10z"/>
   <path class="fil1" d="M334 352c0,-1 0,-5 0,-6 1,-2 1,-2 4,-2 3,0 5,0 5,3 0,2 0,4 -1,6 -3,0 -6,1 -8,-1zm-7 1c-4,0 -4,-1 -3,-5 0,-3 -1,-4 3,-4 4,0 5,0 5,4 0,5 -1,5 -5,5zm-15 -1c0,-1 0,-5 0,-6 0,-3 2,-2 5,-2 5,0 3,7 3,9 -3,0 -6,1 -8,-1zm-145 -5c0,-3 1,-3 4,-3 5,0 3,0 5,2l0 7c-7,1 -9,-1 -9,-6zm-10 0c0,-3 1,-3 3,-3 5,0 3,0 6,2 0,4 0,2 -1,7 -2,0 -4,0 -7,0 -1,-3 -1,0 -1,-6zm145 5c-1,-7 -1,-8 3,-8 4,0 5,0 5,4 0,3 0,5 -3,5 -4,0 -3,1 -5,-1zm-113 -5c0,-3 1,-4 5,-3 5,0 4,5 4,9 -7,1 -9,0 -9,-6zm-11 0c0,-3 1,-3 4,-3 3,0 5,0 5,4 0,6 0,5 -7,5 -1,-3 -2,-1 -2,-6zm107 -13c4,4 3,2 3,10 0,5 1,8 -3,10 -3,2 -46,1 -53,1 -11,0 -18,2 -21,-5 0,-2 0,-9 0,-12 1,-3 3,-5 6,-5 4,-1 17,-1 23,-1 7,0 41,-1 45,2zm49 8c0,-4 -1,-8 3,-8 5,-1 6,0 6,4 0,3 0,5 -3,5 -3,0 -4,0 -6,-1zm-22 0c0,-4 -1,-8 3,-8 4,-1 5,0 5,4 0,3 1,5 -2,5 -3,0 -4,0 -6,-1zm-145 -5c0,-3 2,-3 4,-3 3,0 5,0 5,4 0,4 0,6 -5,5 -4,0 -4,-3 -4,-6zm-9 6c-1,-3 -4,-9 3,-9 5,0 6,4 4,8 -2,1 -4,1 -7,1zm174 -5c0,3 0,5 -4,5 -4,0 -5,0 -4,-4 0,-4 0,-5 3,-5 4,0 5,0 5,4zm-29 -4c2,-1 6,-1 7,2 0,0 0,3 0,4 0,5 -8,3 -8,1 -1,-1 -1,-3 0,-4 0,-3 0,-2 1,-3zm-114 3c0,-3 1,-3 4,-3 7,0 5,6 4,9 -5,1 -8,1 -8,-6zm-9 6c-1,-2 -2,-3 -2,-6 0,-6 12,-5 9,5 -3,1 -4,1 -7,1zm-176 7c0,12 13,10 22,10 148,0 295,0 443,0 5,0 11,0 16,0 5,0 7,-1 10,-5 0,0 0,0 0,0l0 -1c0,-7 -6,-16 -12,-21 -8,-6 -14,-6 -28,-6l-406 0c-18,0 -29,-2 -40,10 -2,4 -4,8 -5,13z"/>
   <path class="fil2" d="M211 217l97 0c0,3 -1,8 -3,9 -3,3 -7,2 -12,2l-79 0c-1,-3 -2,-9 -3,-11zm-10 -37l116 0c0,2 -6,24 -6,28l-103 0c0,-2 -1,-8 -2,-9l99 0 0 -9 -101 0c-1,-2 -2,-7 -3,-10zm105 86l8 -5c-1,-1 -6,-4 -8,-5 -5,-1 -11,0 -17,0 -6,-1 -12,0 -18,0 -12,0 -23,0 -35,0l-1 -1 -1 0c-5,0 -9,-1 -12,-4 -2,-2 -4,-7 -5,-12l5 0 88 0c2,-1 4,-1 6,-5 1,-3 7,-30 9,-38l5 -19c1,-5 0,-6 -3,-9 -19,0 -40,0 -60,0 -20,0 -40,0 -60,-1 -4,0 -6,-1 -9,-3 -4,-3 -4,-14 -16,-18l-3 -1c-4,0 -8,-1 -12,0 -3,1 -5,4 -8,5 1,1 4,3 5,4 2,1 3,2 6,2 16,0 16,11 21,29 4,17 9,34 13,52 7,22 9,30 36,30 22,0 44,0 66,-1z"/>
   <path class="fil1" d="M205 68c1,4 0,14 8,25 1,1 2,2 2,3 1,1 2,2 3,3 26,27 66,11 74,-21 1,-3 1,-7 2,-10 1,-10 0,-6 0,-12 0,-6 1,-5 -9,-5l-80 0c0,4 -2,15 0,17z"/>
   <path class="fil1" d="M408 70c2,4 1,8 5,17 5,9 5,8 10,13 6,7 19,13 31,13 10,-1 19,-5 27,-12l5 -5c12,-15 9,-24 11,-29l0 -13c0,-1 0,-2 0,-3l-88 0c0,4 -3,16 -1,19z"/>
   <path class="fil1" d="M0 68c2,5 1,18 13,31 8,7 20,14 31,14 14,0 24,-7 31,-14 6,-6 10,-12 12,-21 1,-3 1,-7 2,-10 1,-2 0,-13 0,-17l-89 0c0,3 0,4 0,7l0 2c0,3 0,5 0,7l0 0 0 0 0 0 0 0 0 1 0 0z"/>
   <path class="fil3" d="M105 66c2,3 1,9 5,18 12,28 47,38 71,13 6,-6 10,-13 12,-22 1,-3 1,-8 2,-10 0,-2 0,-5 0,-7 0,-3 -1,-4 -1,-7l-88 0c0,5 -1,9 -1,15z"/>
   <path class="fil3" d="M306 66c3,7 -1,16 14,32 12,12 31,18 49,9 27,-14 25,-38 27,-43l-1 -13 -89 0c0,3 0,5 0,7 0,3 0,6 0,8z"/>
   <path class="fil3" d="M121 2c-2,5 -4,10 -6,16 -2,4 -5,12 -7,17 12,0 78,0 85,-1 0,-2 5,-30 5,-34l-68 0c-3,0 -7,0 -9,2z"/>
   <path class="fil3" d="M392 34l-15 -30c-3,-5 -8,-4 -15,-4 -20,0 -41,0 -62,0 0,8 3,19 4,27 1,5 2,6 9,7l47 0c10,0 22,0 32,0z"/>
   <path class="fil1" d="M205 34l87 0c0,-3 -1,-5 -1,-8 -1,-4 -4,-22 -4,-25l-76 0 -6 33z"/>
   <path class="fil1" d="M18 34c16,0 51,0 69,0 4,0 5,-2 7,-3 1,-3 12,-29 13,-31l-61 0c-5,1 -11,10 -15,16 -1,2 -12,16 -13,18z"/>
   <path class="fil1" d="M476 34c-1,-2 -4,-6 -6,-8l-16 -22c-1,-2 -2,-2 -4,-3 -3,-2 -52,-1 -60,-1 1,3 3,8 5,11 1,3 3,6 4,10 7,12 5,13 17,13 11,1 53,1 60,0z"/>
   <path class="fil4" d="M211 350c3,3 4,3 9,3 9,0 61,1 64,-1 5,-2 5,-11 4,-14 -1,-3 -2,-3 -3,-4 -4,-3 -38,-2 -45,-2 -6,0 -19,0 -23,1 -3,0 -5,2 -6,5 0,3 0,10 0,12z"/>
   <path class="fil2" d="M296 301l1 -1c2,-1 4,-2 6,-4 5,-6 4,-18 -7,-22 -10,-2 -18,4 -18,13 0,5 2,9 5,11 4,3 7,3 13,3z"/>
   <path class="fil2" d="M234 301l2 -1c5,-3 8,-7 8,-13 0,-6 -3,-10 -8,-12 -1,-1 -1,-1 -2,-1 -6,-1 -9,0 -13,2 -6,5 -6,18 0,22 5,3 8,3 13,3z"/>
   <path class="fil5" d="M306 66c0,8 1,15 3,21 2,5 6,11 9,14 10,10 20,15 33,15 9,1 14,-2 19,-5 10,-5 19,-15 22,-26 2,-6 4,-12 4,-21 -2,5 0,29 -27,43 -18,9 -37,3 -49,-9 -15,-16 -11,-25 -14,-32z"/>
   <path class="fil5" d="M105 66c0,11 3,23 10,32 10,13 28,23 46,17 1,0 3,-1 4,-2 8,-3 11,-6 18,-12 7,-8 12,-21 12,-36 -1,2 -1,7 -2,10 -2,9 -6,16 -12,22 -24,25 -59,15 -71,-13 -4,-9 -3,-15 -5,-18z"/>
   <path class="fil6" d="M408 70c0,19 11,34 27,42 4,3 12,5 19,5 6,0 14,-3 18,-5 6,-4 7,-5 13,-11 7,-6 12,-20 12,-34 -2,5 1,14 -11,29l-5 5c-8,7 -17,11 -27,12 -12,0 -25,-6 -31,-13 -5,-5 -5,-4 -10,-13 -4,-9 -3,-13 -5,-17z"/>
   <path class="fil6" d="M294 68c-1,3 -1,7 -2,10 -8,32 -48,48 -74,21 -1,-1 -2,-2 -3,-3 0,-1 -1,-2 -2,-3 -8,-11 -7,-21 -8,-25 0,13 4,25 12,34 8,8 20,15 32,15 10,0 19,-4 25,-9 12,-9 20,-22 20,-40z"/>
   <path class="fil6" d="M89 68c-1,3 -1,7 -2,10 -2,9 -6,15 -12,21 -7,7 -17,14 -31,14 -11,0 -23,-7 -31,-14 -12,-13 -11,-26 -13,-31 0,19 9,35 26,44 19,10 36,5 50,-10 9,-8 13,-21 13,-34z"/>
   <path class="fil5" d="M392 34c-10,0 -22,0 -32,0l-47 0c-7,-1 -8,-2 -9,-7 -1,-8 -4,-19 -4,-27 -2,2 1,12 1,14 1,3 3,19 4,20 3,5 16,3 22,3 22,0 44,0 66,0 0,-1 -1,-2 -1,-3z"/>
   <path class="fil5" d="M193 34c-7,1 -73,1 -85,1 2,-5 5,-13 7,-17 2,-6 4,-11 6,-16 -3,1 -4,4 -5,7l-11 28c23,0 45,0 68,0 7,0 17,2 20,-3z"/>
   <path class="fil6" d="M292 34l-87 0c0,1 0,1 0,3l87 0 0 -3z"/>
   <path class="fil6" d="M18 34c-1,1 -2,2 -2,3l63 0c6,0 13,1 15,-6 -2,1 -3,3 -7,3 -18,0 -53,0 -69,0z"/>
   <path class="fil7" d="M476 34c-7,1 -49,1 -60,0 -12,0 -10,-1 -17,-13 -1,-4 -3,-7 -4,-10 -2,-3 -4,-8 -5,-11l-2 0c1,3 4,8 5,11 2,4 4,7 6,11 1,2 1,3 2,5 1,2 2,3 3,5 3,6 5,5 11,5 21,0 42,0 63,0 0,-1 0,0 -1,-1l-1 -2z"/>
   <path class="fil8" d="M211 350c3,7 10,5 21,5 7,0 50,1 53,-1 4,-2 3,-5 3,-10 0,-8 1,-6 -3,-10 1,1 2,1 3,4 1,3 1,12 -4,14 -3,2 -55,1 -64,1 -5,0 -6,0 -9,-3z"/>
   <path class="fil9" d="M189 347c0,6 2,7 9,6 0,-4 1,-9 -4,-9 -4,-1 -5,0 -5,3z"/>
   <path class="fil9" d="M157 347c0,6 0,3 1,6 3,0 5,0 7,0 1,-5 1,-3 1,-7 -3,-2 -1,-2 -6,-2 -2,0 -3,0 -3,3z"/>
   <path class="fil9" d="M167 347c0,5 2,7 9,6l0 -7c-2,-2 0,-2 -5,-2 -3,0 -4,0 -4,3z"/>
   <path class="fil9" d="M178 347c0,5 1,3 2,6 7,0 7,1 7,-5 0,-4 -2,-4 -5,-4 -3,0 -4,0 -4,3z"/>
   <path class="fil9" d="M189 337c0,7 3,7 8,6 1,-3 3,-9 -4,-9 -3,0 -4,0 -4,3z"/>
   <path class="fil9" d="M167 337c0,3 0,6 4,6 5,1 5,-1 5,-5 0,-4 -2,-4 -5,-4 -2,0 -4,0 -4,3z"/>
   <path class="fil9" d="M158 343c3,0 5,0 7,-1 2,-4 1,-8 -4,-8 -7,0 -4,6 -3,9z"/>
   <path class="fil10" d="M302 352c2,2 1,1 5,1 3,0 3,-2 3,-5 0,-4 -1,-4 -5,-4 -4,0 -4,1 -3,8z"/>
   <path class="fil10" d="M334 352c2,2 5,1 8,1 1,-2 1,-4 1,-6 0,-3 -2,-3 -5,-3 -3,0 -3,0 -4,2 0,1 0,5 0,6z"/>
   <path class="fil10" d="M334 342c2,1 3,1 6,1 3,0 3,-2 3,-5 0,-4 -1,-5 -6,-4 -4,0 -3,4 -3,8z"/>
   <path class="fil10" d="M327 353c4,0 5,0 5,-5 0,-4 -1,-4 -5,-4 -4,0 -3,1 -3,4 -1,4 -1,5 3,5z"/>
   <path class="fil10" d="M312 342c2,1 3,1 6,1 3,0 2,-2 2,-5 0,-4 -1,-5 -5,-4 -4,0 -3,4 -3,8z"/>
   <path class="fil9" d="M180 343c3,0 4,0 7,-1 3,-10 -9,-11 -9,-5 0,3 1,4 2,6z"/>
   <path class="fil10" d="M312 352c2,2 5,1 8,1 0,-2 2,-9 -3,-9 -3,0 -5,-1 -5,2 0,1 0,5 0,6z"/>
   <path class="fil10" d="M303 334c-1,1 -1,0 -1,3 -1,1 -1,3 0,4 0,2 8,4 8,-1 0,-1 0,-4 0,-4 -1,-3 -5,-3 -7,-2z"/>
   <path class="fil10" d="M332 338c0,-4 -1,-4 -5,-4 -3,0 -3,1 -3,5 -1,4 0,4 4,4 4,0 4,-2 4,-5z"/>
  </g>
 </g>
</svg>
