<?xml version="1.0" encoding="UTF-8"?>
<!DOCTYPE svg PUBLIC "-//W3C//DTD SVG 1.1//EN" "http://www.w3.org/Graphics/SVG/1.1/DTD/svg11.dtd">
<!-- Creator: CorelDRAW X7 -->
<svg xmlns="http://www.w3.org/2000/svg" xml:space="preserve" width="0.4in" height="0.399992in" version="1.1" style="shape-rendering:geometricPrecision; text-rendering:geometricPrecision; image-rendering:optimizeQuality; fill-rule:evenodd; clip-rule:evenodd"
viewBox="0 0 159 159"
 xmlns:xlink="http://www.w3.org/1999/xlink">
 <defs>
  <style type="text/css">
   <![CDATA[
    .fil21 {fill:none}
    .fil14 {fill:#AB4723;fill-rule:nonzero}
    .fil12 {fill:#AB4926;fill-rule:nonzero}
    .fil19 {fill:#AD4823;fill-rule:nonzero}
    .fil4 {fill:#D35727;fill-rule:nonzero}
    .fil9 {fill:#D45726;fill-rule:nonzero}
    .fil10 {fill:#D45727;fill-rule:nonzero}
    .fil5 {fill:#D45827;fill-rule:nonzero}
    .fil11 {fill:#D45928;fill-rule:nonzero}
    .fil13 {fill:#D55928;fill-rule:nonzero}
    .fil18 {fill:#E1855F;fill-rule:nonzero}
    .fil17 {fill:#E59575;fill-rule:nonzero}
    .fil8 {fill:#F16924;fill-rule:nonzero}
    .fil3 {fill:#F27133;fill-rule:nonzero}
    .fil20 {fill:#F2B28E;fill-rule:nonzero}
    .fil2 {fill:#F37B36;fill-rule:nonzero}
    .fil6 {fill:#F37C37;fill-rule:nonzero}
    .fil7 {fill:#F37C38;fill-rule:nonzero}
    .fil16 {fill:#F7AB7E;fill-rule:nonzero}
    .fil15 {fill:#F8BF9F;fill-rule:nonzero}
    .fil1 {fill:url(#id1)}
    .fil0 {fill:url(#id2)}
   ]]>
  </style>
    <clipPath id="id0">
     <path d="M79 152c40,0 72,-33 72,-73 0,-40 -32,-72 -72,-72 -39,0 -71,32 -71,72 0,40 32,73 71,73z"/>
    </clipPath>
  <linearGradient id="id1" gradientUnits="userSpaceOnUse" x1="79.3518" y1="152.045" x2="79.3518" y2="6.65261">
   <stop offset="0" style="stop-opacity:1; stop-color:#FF6E01"/>
   <stop offset="1" style="stop-opacity:1; stop-color:yellow"/>
  </linearGradient>
  <linearGradient id="id2" gradientUnits="userSpaceOnUse" xlink:href="#id1" x1="79.3502" y1="0" x2="79.3502" y2="158.697">
  </linearGradient>
 </defs>
 <g id="Layer_x0020_1">
  <metadata id="CorelCorpID_0Corel-Layer"/>
  <g id="_783823488">
   <circle class="fil0" cx="79" cy="79" r="79"/>
   <path class="fil1" d="M79 152c40,0 72,-33 72,-73 0,-40 -32,-72 -72,-72 -39,0 -71,32 -71,72 0,40 32,73 71,73z"/>
   <g style="clip-path:url(#id0)">
    <g>
     <g>
      <path id="1" class="fil2" d="M140 73c-1,0 -1,1 -2,2 -1,1 -2,3 -3,4 0,1 -1,1 -1,1 -1,0 -2,1 -4,1 -1,1 -3,1 -4,1 -1,0 -2,-1 -3,-1 -2,0 -3,-1 -4,0 -1,0 -2,0 -3,-1 -1,0 -2,-1 -4,-1 -1,0 -2,-1 -3,-1 -1,-1 -1,-2 -2,-2 -1,0 -2,0 -3,0 -1,0 -2,0 -3,0 0,-1 -1,-1 -1,-2 1,-2 2,-3 3,-5 1,-1 2,-2 2,-3 0,0 0,0 0,0 1,0 2,-1 2,-1 2,-1 4,-2 6,-3 0,-1 1,-1 2,-2 0,0 0,0 0,-1 0,-1 0,-1 -1,-1 -1,-1 -3,-1 -5,-1 -2,0 -4,0 -5,0 -1,0 -1,0 -1,0 -2,0 -3,0 -5,-1 -3,-1 -6,-2 -7,-6 -1,0 -1,-1 -1,-2 0,-3 2,-4 4,-4 2,1 4,2 6,3 1,0 2,0 2,0 0,0 1,0 1,0 0,0 0,1 1,1 0,0 0,0 0,0 2,0 3,0 4,0 0,0 0,0 1,0 3,0 6,1 10,1 0,0 0,0 0,0 0,0 1,0 1,0 0,0 0,0 0,0 3,0 4,1 6,2 1,0 1,1 1,1 2,1 3,2 4,3 1,1 1,2 2,3 0,0 0,-1 0,-1 0,0 0,0 0,-1 -1,-2 -1,-4 0,-6 0,-1 0,-1 0,-1l0 0c0,0 0,0 0,0 2,-1 3,-2 5,-3 5,-3 9,-6 14,-9 0,0 0,0 1,0 7,5 15,11 22,16 0,1 -1,1 -1,1 -9,5 -17,9 -26,14 0,0 -1,0 -1,0 -2,0 -3,0 -5,-1 -1,-1 -3,-2 -4,-3 0,0 0,-1 0,-1 0,0 0,0 -1,0 1,1 1,1 1,1 0,2 1,4 2,5 0,1 0,3 0,4z"/>
      <path class="fil3" d="M80 72c2,0 3,1 2,3 -1,2 -2,4 -4,4 0,-1 -1,-1 -1,-2 -2,0 -3,-1 -4,-1 -2,0 -5,0 -7,1 -2,0 -3,0 -4,1 -3,1 -6,2 -9,3 -1,0 -2,1 -3,1 1,1 1,1 1,1 2,-1 3,-1 5,-2 1,0 2,0 3,0 1,0 2,-1 3,-1 2,0 3,0 5,0 0,0 0,0 0,1 1,0 3,1 4,0 1,0 1,-1 1,-1 0,0 1,0 2,1 0,0 0,0 0,0 0,0 -1,0 -1,0 -1,2 -2,2 -3,3 -3,0 -5,1 -8,2 -1,0 -3,0 -4,0 0,0 -1,1 -2,1 0,1 -1,1 -2,2 -1,0 -2,0 -3,1 -1,1 -2,1 -3,2 -2,1 -4,3 -6,4 -1,1 -2,2 -3,4 -3,2 -6,3 -9,4 -1,0 -1,1 -2,1 -1,0 -2,0 -4,0 -1,-1 -2,-1 -3,-1 -2,1 -5,2 -7,3 -4,1 -7,3 -10,4 -1,-1 -3,-2 -4,-2 -3,-3 -6,-5 -10,-8 0,0 1,0 1,0 3,-1 6,-2 10,-3 4,-1 9,-3 13,-4 1,0 2,-1 2,-1 5,-5 11,-8 17,-11 3,-2 6,-3 9,-5 0,0 0,0 0,0 1,0 1,0 1,0l0 0c1,0 2,-1 2,-1 2,0 3,-1 4,-1 2,0 4,0 6,-1 2,0 3,0 5,0 2,0 3,0 5,0 1,-1 3,-1 4,-1 0,0 0,0 0,0 2,0 3,0 5,0 0,1 0,1 0,2 2,1 3,1 5,1 1,-1 1,-1 1,-2 0,0 0,-1 0,-2z"/>
      <path class="fil4" d="M4 111c3,-1 6,-3 10,-4 2,-1 5,-2 7,-3 1,0 2,0 3,1 2,0 3,0 4,0 1,0 1,-1 2,-1 3,-1 6,-2 9,-4 1,-2 2,-3 3,-4 2,-1 4,-3 6,-4 1,-1 2,-1 3,-2 1,-1 2,-1 3,-1 1,-1 2,-1 2,-2 1,0 2,-1 2,-1 1,0 3,0 4,0 3,-1 5,-2 8,-2 1,-1 2,-1 3,-3 0,0 1,0 1,0 0,1 0,1 -1,2 -1,2 -2,3 -4,3 -3,1 -5,2 -8,2 -1,0 -1,1 -2,1 -1,0 -1,0 -2,1 0,0 -1,0 -1,1 -2,0 -3,1 -5,2 -1,1 -2,2 -4,3 0,0 0,0 0,0l0 0c0,0 0,0 0,1l0 0c0,-1 -1,0 -1,0l0 0c0,0 0,0 0,0 -2,1 -3,2 -5,3 0,1 -1,2 -2,3 -1,0 -1,1 0,1 2,1 3,2 4,2 1,1 2,1 2,1 1,1 2,1 3,1 2,1 3,2 5,3 1,1 1,2 1,4 0,1 -1,2 -3,1 0,0 -1,0 -1,-1 -3,0 -5,-1 -8,-1 -1,-1 -2,0 -4,0 0,0 0,0 -1,0 0,0 0,0 -1,0 0,0 0,0 -1,0 0,0 0,0 0,0 -1,0 -2,-1 -3,-1 -1,0 -2,-1 -4,-1 0,0 -1,0 -2,0 -2,0 -3,0 -5,1 -3,1 -6,3 -8,4 -1,0 -1,0 -2,0 -2,-2 -5,-4 -7,-6 0,0 0,0 0,0z"/>
      <path class="fil5" d="M100 74c0,1 1,1 1,2 1,0 2,0 3,0 1,0 2,0 3,0 1,0 1,1 2,2 1,0 2,1 3,1 2,0 3,1 4,1 1,1 2,1 3,1 1,-1 2,0 4,0 1,0 2,1 3,1 1,0 3,0 4,-1 2,0 3,-1 4,-1 0,0 1,0 1,-1 -2,3 -4,5 -6,7 0,0 -1,1 -1,1 -1,-1 -1,-2 -2,-2 -1,-1 -2,-2 -3,-1 -2,0 -3,1 -4,2 -3,2 -5,4 -8,6 0,0 0,0 0,1l0 0c0,0 -2,1 -3,1 0,1 -1,2 -2,2 0,-1 1,-1 1,-2 2,-2 4,-3 6,-5 1,-1 2,-3 3,-4 0,-1 0,-2 -1,-2 0,-1 -1,-1 -2,-1 -2,0 -3,1 -4,2 -2,1 -3,3 -5,4 -1,2 -2,3 -3,4 -1,1 -1,1 -2,2 -1,1 -2,2 -3,3 -1,0 -1,1 -1,2 -1,0 -1,0 -1,0 -1,1 -3,1 -4,1 -1,0 -1,0 -2,-1 2,1 3,1 4,-1 2,-1 4,-2 5,-4 2,-2 4,-4 6,-6 1,0 1,-1 2,-2 0,0 1,-1 1,-2 1,0 1,-1 1,-2 0,-1 0,-1 -1,-1 -1,-1 -2,-1 -3,0 -1,0 -2,1 -3,2 0,1 -1,2 -2,2 -1,1 -2,2 -3,3 -1,1 -2,2 -3,2 0,0 0,-1 1,-1 1,-2 3,-4 5,-5 1,-1 2,-2 2,-4 1,-1 0,-3 -1,-4 0,0 1,-1 1,-2z"/>
      <path class="fil6" d="M111 93l0 0c0,-1 0,-1 0,-1 3,-2 5,-4 8,-6 1,-1 2,-2 4,-2 1,-1 2,0 3,1 1,0 1,1 2,2 -2,2 -4,4 -6,6 -4,3 -8,5 -12,8 -1,1 -2,1 -3,2 -1,0 -2,-1 -2,-3 0,-1 0,-2 1,-2 1,-1 2,-2 3,-3 1,-1 1,-2 2,-2z"/>
      <path class="fil2" d="M95 99c0,-1 0,-2 1,-2 1,-1 2,-2 3,-3 1,-1 1,-1 2,-2 1,-1 2,-2 3,-4 2,-1 3,-3 5,-4 1,-1 2,-2 4,-2 1,0 2,0 2,1 1,0 1,1 1,2 -1,1 -2,3 -3,4 -2,2 -4,3 -6,5 0,1 -1,1 -1,2l0 0c0,0 0,0 0,0 -2,2 -4,3 -6,5 0,0 -1,0 -1,0 0,1 0,1 -1,1 0,0 0,0 0,0 -1,0 -1,0 -1,0 -2,0 -2,-1 -2,-3z"/>
      <path class="fil4" d="M74 73c-2,0 -3,0 -5,0 0,0 0,0 0,0 -1,0 -3,0 -4,1 -2,0 -3,0 -5,0 -2,0 -3,0 -5,0 -2,1 -4,1 -6,1 -1,0 -2,1 -4,1 0,0 -1,1 -2,1 2,-2 5,-3 8,-4 1,0 2,0 3,-1 1,0 1,0 1,0 2,0 4,-1 7,-1 3,-1 5,-2 8,-3 2,-1 4,-1 5,-2 1,1 1,1 2,1 1,0 2,-1 3,-1 1,-1 1,-2 1,-3 1,0 1,0 1,0 1,0 2,1 2,3 -1,3 -3,5 -5,6 -1,0 -2,0 -2,1 -1,0 -2,0 -3,0z"/>
      <path class="fil2" d="M95 88c1,-1 2,-2 3,-3 1,0 2,-1 2,-2 1,-1 2,-2 3,-2 1,-1 2,-1 3,0 1,0 1,0 1,1 0,1 0,2 -1,2 0,1 -1,2 -1,2 -1,1 -1,2 -2,2 -2,2 -4,4 -6,6 -1,2 -3,3 -5,4 -1,2 -2,2 -4,1 0,-1 0,-2 0,-2 0,-1 1,-2 1,-3 1,-1 3,-2 4,-3 0,-1 1,-2 2,-3z"/>
      <path class="fil7" d="M99 76c1,1 2,3 1,4 0,2 -1,3 -2,4 -2,1 -4,3 -5,5 -1,0 -1,1 -1,1 -2,2 -4,3 -6,4 -1,1 -2,1 -3,1 -2,-1 -2,-3 -2,-4 1,-1 1,-2 2,-3 2,0 3,-1 4,-2 3,-2 6,-4 9,-7 1,-1 2,-2 3,-3z"/>
      <path class="fil8" d="M75 66c-1,1 -3,1 -5,2 -3,1 -5,2 -8,3 -3,0 -5,1 -7,1 0,0 0,0 -1,0 1,0 1,0 1,0 4,-2 7,-4 10,-6 3,-1 6,-4 9,-6 0,0 1,0 2,0 0,0 1,1 1,1 0,2 0,3 -1,4 0,0 0,0 0,0 0,1 0,1 -1,1z"/>
      <path class="fil9" d="M74 81c-1,-1 -2,-1 -2,-1 -1,0 -2,0 -3,0 -1,0 -1,0 -2,0 -2,0 -3,0 -5,0 -1,0 -2,1 -3,1 -1,0 -2,0 -3,0 -2,1 -3,1 -5,2 0,0 0,0 -1,-1 1,0 2,-1 3,-1 3,-1 6,-2 9,-3 1,-1 2,-1 4,-1 2,-1 5,-1 7,-1 1,0 2,1 4,1 0,1 1,1 1,2 -1,1 -2,1 -2,1 -1,0 -2,0 -2,1z"/>
      <path class="fil10" d="M103 57c0,0 0,0 1,0 1,0 3,0 5,0 2,0 4,0 5,1 1,0 1,0 1,1 0,1 0,1 0,1 -1,1 -2,1 -2,2 -2,1 -4,2 -6,3 0,0 -1,1 -2,1 0,0 0,0 0,0 0,-1 1,-1 1,-2 0,-1 0,-3 -1,-4 0,-2 -1,-2 -2,-3z"/>
      <path class="fil11" d="M140 73c0,-1 0,-3 0,-4 -1,-1 -2,-3 -2,-5 0,0 0,0 -1,-1 1,0 1,0 1,0 0,0 0,1 0,1 1,1 3,2 4,3 2,1 3,1 5,1 -2,1 -3,2 -5,3 -1,0 -2,1 -2,2z"/>
      <path class="fil12" d="M45 107c0,0 -1,0 -2,-1 -1,0 -2,-1 -4,-2 -1,0 -1,-1 0,-1 1,-1 2,-2 2,-3 2,-1 3,-2 5,-3 0,0 0,0 0,0 0,0 0,1 -1,1 -2,1 -2,5 -2,7 0,0 1,1 2,2 0,0 0,0 0,0z"/>
      <path class="fil13" d="M133 49c0,0 0,0 0,1 -1,2 -1,4 0,6 0,1 0,1 0,1 0,0 0,1 0,1 -1,-1 -1,-2 -2,-3 -1,-1 -2,-2 -4,-3 0,0 0,-1 -1,-1 2,1 4,0 6,-1 0,0 1,0 1,-1z"/>
      <path class="fil14" d="M74 73c1,0 2,0 3,0 1,-1 2,-1 3,-1 0,1 0,2 0,2 0,1 0,1 -1,2 -2,0 -3,0 -5,-1 0,-1 0,-1 0,-2z"/>
      <path class="fil12" d="M75 66c1,0 1,0 1,-1 0,0 1,0 1,0 1,0 3,-1 4,-2 0,0 0,0 0,0 0,1 0,2 -1,3 -1,0 -2,1 -3,1 -1,0 -1,0 -2,-1z"/>
      <path class="fil15" d="M109 48c-1,0 -1,0 -1,0 0,0 0,0 1,0z"/>
      <path class="fil16" d="M97 102c0,0 0,0 1,0 -1,0 -1,0 -1,0z"/>
      <path class="fil12" d="M46 97c0,0 1,-1 1,0 0,0 -1,0 -1,0z"/>
      <path class="fil15" d="M120 49c0,0 0,0 0,0 0,0 0,0 0,0z"/>
      <path class="fil15" d="M104 48c0,0 0,0 0,0 0,0 0,0 0,0z"/>
      <path class="fil15" d="M103 47c0,0 -1,0 -1,0 0,0 1,0 1,0z"/>
      <path class="fil15" d="M119 49c0,0 0,0 0,0 0,0 0,0 0,0z"/>
      <path class="fil16" d="M98 102c1,0 1,0 1,-1 0,1 0,1 -1,1z"/>
      <path class="fil17" d="M81 63c0,0 0,0 0,0 1,0 1,0 1,0 0,0 0,0 -1,0z"/>
      <path class="fil18" d="M35 114c0,0 0,0 0,0 0,0 0,0 0,0z"/>
      <path class="fil4" d="M43 77c0,0 0,0 -1,0 1,0 1,0 1,0z"/>
      <path class="fil12" d="M47 97c0,-1 0,-1 0,-1 0,0 0,0 0,1z"/>
      <path class="fil13" d="M133 49c0,0 0,0 0,0 0,0 0,0 0,0z"/>
      <path class="fil12" d="M47 96c0,0 0,0 0,0 0,0 0,0 0,0z"/>
      <path class="fil5" d="M106 96c0,0 0,0 0,0 0,0 0,0 0,0z"/>
      <path class="fil19" d="M67 80c1,0 1,0 2,0 1,0 2,0 3,0 0,0 0,1 -1,1 -1,1 -3,0 -4,0 0,-1 0,-1 0,-1z"/>
      <path class="fil20" d="M95 88c0,0 0,1 -1,1 1,0 1,-1 1,-1z"/>
     </g>
    </g>
   </g>
   <path class="fil21" d="M79 152c40,0 72,-33 72,-73 0,-40 -32,-72 -72,-72 -39,0 -71,32 -71,72 0,40 32,73 71,73z"/>
  </g>
 </g>
</svg>
