<?xml version="1.0" encoding="UTF-8"?>
<!DOCTYPE svg PUBLIC "-//W3C//DTD SVG 1.1//EN" "http://www.w3.org/Graphics/SVG/1.1/DTD/svg11.dtd">
<!-- Creator: CorelDRAW X7 -->
<svg xmlns="http://www.w3.org/2000/svg" xml:space="preserve" width="0.549071in" height="0.501213in" version="1.1" style="shape-rendering:geometricPrecision; text-rendering:geometricPrecision; image-rendering:optimizeQuality; fill-rule:evenodd; clip-rule:evenodd"
viewBox="0 0 584 533"
 xmlns:xlink="http://www.w3.org/1999/xlink">
 <defs>
  <style type="text/css">
   <![CDATA[
    .fil0 {fill:#33165E}
   ]]>
  </style>
 </defs>
 <g id="Layer_x0020_1">
  <metadata id="CorelCorpID_0Corel-Layer"/>
  <g id="_584842544">
   <path class="fil0" d="M379 454c52,0 25,-59 15,-84 -7,-17 -13,-41 -21,-56 -18,-38 -61,-34 -105,-44 -3,-12 -4,-30 1,-45 5,-12 -1,-8 33,8 12,6 25,10 40,12 47,6 35,-22 71,85 8,26 18,62 29,83 30,-16 62,-41 108,-12 13,8 20,22 34,25 -1,-52 -85,-63 -91,-69 -7,-6 -16,-46 -52,-65 -14,-7 -19,-5 -20,-22 30,3 17,28 52,28 19,0 32,-77 -10,-77 -14,0 -23,28 -42,28 -12,0 -11,-8 -16,-15 -9,-14 -2,-9 -19,-6 0,-31 -21,-15 -62,-28 -30,-9 -31,-23 -52,-38 0,-1 24,-37 -12,-57 -23,-13 -52,8 -61,23 -23,36 -31,99 -24,155 9,65 87,47 128,60 20,6 23,29 35,59 7,20 16,52 41,52z"/>
   <path class="fil0" d="M15 357c0,18 6,20 6,35 0,40 -40,100 -10,100 37,0 31,3 35,-34 3,-25 22,-47 42,-58 51,-28 110,-4 125,58 11,47 -20,34 191,34 11,0 13,-8 13,-17 0,-20 -29,-14 -48,-14 -22,0 -44,0 -66,0 -24,0 -41,5 -50,-12 -27,-54 0,-66 -9,-106 -34,-8 -155,-3 -198,-3 -14,0 -31,3 -31,17z"/>
   <path class="fil0" d="M11 329l139 0 0 -90c-72,0 -63,-8 -63,31l-13 0c0,-17 -4,-15 -4,-31l-59 0 0 90z"/>
   <path class="fil0" d="M74 465l0 20c0,58 118,75 118,-13 0,-33 -24,-55 -57,-57 -28,-2 -61,21 -61,50z"/>
   <path class="fil0" d="M563 475c0,-28 -21,-59 -48,-59 -28,0 -56,1 -68,36 -5,14 -5,24 -1,36 19,68 117,52 117,-13z"/>
   <path class="fil0" d="M240 48c0,55 94,76 101,-4 9,5 21,7 35,7 -2,-26 -25,-12 -41,-25 -9,-8 -1,-9 -17,-18 -48,-27 -78,21 -78,40z"/>
   <polygon class="fil0" points="11,225 150,225 150,204 11,204 "/>
  </g>
 </g>
</svg>
