<?xml version="1.0" encoding="UTF-8"?>
<!DOCTYPE svg PUBLIC "-//W3C//DTD SVG 1.1//EN" "http://www.w3.org/Graphics/SVG/1.1/DTD/svg11.dtd">
<!-- Creator: CorelDRAW X7 -->
<svg xmlns="http://www.w3.org/2000/svg" xml:space="preserve" width="0.666661in" height="0.666661in" version="1.1" style="shape-rendering:geometricPrecision; text-rendering:geometricPrecision; image-rendering:optimizeQuality; fill-rule:evenodd; clip-rule:evenodd"
viewBox="0 0 667 667"
 xmlns:xlink="http://www.w3.org/1999/xlink">
 <defs>
  <style type="text/css">
   <![CDATA[
    .fil2 {fill:#ED3237}
    .fil0 {fill:#F0B477}
    .fil1 {fill:#E6AA6D}
    .fil3 {fill:#ED3237;fill-rule:nonzero}
   ]]>
  </style>
 </defs>
 <g id="Layer_x0020_1">
  <metadata id="CorelCorpID_0Corel-Layer"/>
  <g id="_319850480">
   <path class="fil0" d="M264 590l198 0c0,0 -18,-145 -11,-185 8,-41 12,-77 25,-104 13,-26 37,-89 20,-102 -17,-13 -144,-133 -246,-76 -103,57 -57,103 -49,132 7,30 53,101 63,141 9,41 0,194 0,194z"/>
   <path class="fil0" d="M261 264c0,0 -8,-189 4,-196 12,-8 69,-8 66,14 -2,23 -17,165 -23,183 -6,19 -1,27 -10,33 -8,6 -44,12 -37,-34z"/>
   <path class="fil1" d="M299 140l-4 61 -7 101c4,-1 8,-3 10,-4 9,-6 4,-14 10,-33 2,-6 5,-26 8,-51 5,-36 10,-82 13,-109 0,-2 0,-3 0,-4 1,-3 1,-5 1,-8 1,-4 1,-8 1,-11 2,-11 -11,-16 -26,-18l-2 26 0 1 -1 13 0 1 -3 35z"/>
   <path class="fil0" d="M310 281c0,0 8,-189 21,-196 12,-6 69,-1 65,21 -5,22 -33,162 -40,180 -8,18 -4,26 -12,32 -9,5 -45,8 -34,-37z"/>
   <path class="fil1" d="M359 160l-10 61 -16 99c4,0 8,-1 11,-2 8,-6 4,-14 12,-32 2,-6 7,-26 13,-51 8,-35 17,-80 22,-107 1,-1 1,-3 1,-4 1,-3 1,-5 2,-7 1,-5 1,-9 2,-11 2,-11 -11,-18 -25,-21l-4 26 0 1 -3 13 0 1 -5 34z"/>
   <path class="fil0" d="M358 276c0,0 28,-163 39,-167 12,-5 61,6 55,25 -7,18 -46,137 -54,152 -9,15 -6,22 -14,26 -9,3 -40,2 -26,-36z"/>
   <path class="fil1" d="M414 177l-15 51 -25 85c4,0 8,-1 10,-1 8,-4 5,-11 14,-26 3,-5 9,-22 16,-43 11,-30 24,-68 31,-91 1,-1 1,-2 1,-3 1,-2 2,-4 2,-6 2,-4 3,-7 4,-9 2,-9 -8,-17 -20,-21l-6 22 0 1 -4 11 0 0 -8 30z"/>
   <path class="fil2" d="M373 321c0,0 -12,3 -14,-7 -2,-9 5,-29 9,-38 4,-9 27,4 27,4 0,0 -8,34 -22,41z"/>
   <path class="fil0" d="M410 279c0,0 31,-139 41,-143 10,-3 51,8 45,24 -6,16 -45,116 -53,128 -8,13 -6,19 -13,22 -7,3 -35,1 -20,-31z"/>
   <path class="fil1" d="M462 195l-16 44 -25 72c4,0 7,0 9,-1 7,-3 5,-9 13,-22 3,-4 9,-18 16,-36 11,-25 23,-57 31,-76 0,-1 1,-2 1,-3 1,-2 2,-4 2,-5 2,-4 3,-6 3,-8 3,-8 -5,-14 -15,-19l-7 19 0 0 -3 10 -1 0 -8 25z"/>
   <path class="fil2" d="M420 318c0,0 -11,1 -12,-7 -1,-8 6,-25 10,-33 4,-7 23,5 23,5 0,0 -8,30 -21,35z"/>
   <path class="fil0" d="M262 389c0,0 -70,-130 -85,-144 -15,-14 20,-116 28,-129 7,-14 -2,-20 53,-22 56,-2 68,-3 62,14 -5,17 -4,38 -47,44 0,0 -15,-3 -16,13 0,16 -2,32 9,35 12,3 73,40 89,82 16,41 24,99 18,123 -6,25 -94,45 -111,-16z"/>
   <path class="fil2" d="M258 92c0,0 -5,10 5,12 10,2 68,-1 73,-6 6,-4 -30,-13 -78,-6z"/>
   <path class="fil1" d="M371 436c-25,38 -22,113 -18,154l109 0c0,0 -18,-145 -11,-185 7,-34 11,-66 20,-91 0,0 -63,68 -100,122z"/>
   <g>
    <path class="fil3" d="M263 523l-1 23 0 0 -3 0 -3 -1 -3 -1 -3 -1 -3 -1 -3 -2 -2 -3 -1 -3 -1 -4 0 -3 0 -3 1 -2 1 -2 1 -2 1 -2 1 -2 1 -1 2 -2 1 -1 1 -2 1 -1 2 -1 1 -1 1 -1 1 -1 1 -1 1 -1 1 0 0 -1 1 0 0 -1 0 0 14 19 0 0 0 0 -1 0 0 0 -1 1 0 0 -1 1 -1 1 -1 1 -1 0 -1 1 -1 1 0 1 -1 1 -1 1 -1 1 0 0 0 1 -1 0 0 0 0 0 0 0 0 -2 0 -1 -1 -1 -1 -2 0 0 -1 0 0 0 1 0 1 0 2 0 0 0zm189 -53l20 10 0 0 -3 4 -3 4 -4 4 -5 3 -5 3 -6 3 -6 2 -6 3 -7 3 -8 3 -7 2 -8 3 -8 2 -8 3 -9 2 -8 2 -9 2 -8 3 -9 2 -8 1 -8 2 -8 2 -8 1 -7 2 -7 1 -7 1 -6 1 -6 1 -5 0 -5 1 -4 0 -4 0 1 -23 2 0 4 0 4 0 4 -1 6 0 6 -1 6 -1 7 -2 7 -1 7 -1 8 -2 8 -2 8 -2 8 -2 9 -2 8 -2 8 -2 8 -2 8 -3 8 -2 8 -2 7 -3 7 -2 6 -3 6 -2 5 -3 5 -2 4 -3 3 -2 2 -2 2 -1 0 0 0 0zm6 -4l-1 -22 0 0 0 0 0 0 1 0 0 -1 1 0 1 0 1 0 0 0 2 0 1 0 1 0 2 0 1 0 2 1 3 1 2 1 2 2 1 3 1 2 1 2 0 2 0 2 -1 2 0 2 0 2 -1 2 -1 2 0 2 -1 2 -1 2 -1 2 -2 3 -20 -10 1 -3 1 -2 1 -1 1 -2 0 -1 0 -2 1 -1 0 0 0 -1 0 0 0 1 0 0 0 1 1 2 1 1 1 2 2 0 1 1 1 0 1 0 0 0 0 0 0 0 0 1 -1 0 -1 0 0 0 -1 0 -1 0 -1 0 -1 0 -1 0 0 0zm-8 -11l0 -11 0 0 0 0 0 0 0 0 -1 0 1 0 0 0 0 0 0 0 0 0 0 0 0 0 0 0 0 0 1 0 0 0 0 0 0 0 0 0 1 0 0 0 0 0 1 0 0 0 1 0 0 0 1 0 0 0 1 0 0 0 1 0 1 22 -1 0 0 0 -1 0 -1 0 0 1 -1 0 0 0 0 0 -1 0 0 0 0 0 -1 0 0 0 0 0 0 0 -1 0 0 0 0 0 0 0 0 0 0 0 0 0 0 0 0 0 0 0 0 0 -1 0 0 0 0 0 0 0 0 0 0 -12z"/>
   </g>
  </g>
 </g>
</svg>
